<?xml version="1.0" encoding="UTF-8" standalone="no"?>
<!-- Created with Inkscape (http://www.inkscape.org/) -->

<svg
   width="178.561mm"
   height="178.61798mm"
   viewBox="0 0 178.561 178.61798"
   version="1.1"
   id="svg1"
   xml:space="preserve"
   inkscape:export-filename="RustAssemblyExplorer.svg"
   inkscape:export-xdpi="96"
   inkscape:export-ydpi="96"
   xmlns:inkscape="http://www.inkscape.org/namespaces/inkscape"
   xmlns:sodipodi="http://sodipodi.sourceforge.net/DTD/sodipodi-0.dtd"
   xmlns="http://www.w3.org/2000/svg"
   xmlns:svg="http://www.w3.org/2000/svg"><sodipodi:namedview
     id="namedview1"
     pagecolor="#ffffff"
     bordercolor="#000000"
     borderopacity="0.25"
     inkscape:showpageshadow="2"
     inkscape:pageopacity="0.0"
     inkscape:pagecheckerboard="0"
     inkscape:deskcolor="#d1d1d1"
     inkscape:document-units="mm"
     inkscape:zoom="1"
     inkscape:cx="361.5"
     inkscape:cy="439"
     inkscape:window-width="2494"
     inkscape:window-height="1371"
     inkscape:window-x="66"
     inkscape:window-y="32"
     inkscape:window-maximized="1"
     inkscape:current-layer="layer1"><inkscape:page
       x="0"
       y="0"
       width="178.561"
       height="178.61798"
       id="page2"
       margin="0"
       bleed="0" /></sodipodi:namedview><defs
     id="defs1" /><g
     inkscape:label="Layer 1"
     inkscape:groupmode="layer"
     id="layer1"
     transform="translate(-18.732827,-64.383321)"><path
       style="fill:#ced0d6;fill-opacity:1"
       d="m 107.12208,242.91901 c -0.69732,-0.28684 -1.22263,-1.00306 -3.39283,-4.62579 l -2.38971,-3.98918 -0.6058,-0.0727 c -0.33319,-0.04 -0.883589,-0.10177 -1.223116,-0.13736 l -0.617322,-0.0647 -3.182703,3.50645 c -3.439621,3.78951 -3.630794,3.93601 -4.943185,3.78809 -0.711795,-0.0802 -1.269565,-0.41078 -1.722972,-1.02106 -0.149854,-0.20171 -0.952563,-2.25951 -1.783798,-4.57289 -0.831235,-2.31339 -1.536267,-4.23109 -1.566736,-4.26156 -0.03047,-0.0305 -0.56304,-0.21203 -1.18349,-0.40346 l -1.12809,-0.34805 -3.659203,2.70954 c -2.012561,1.49025 -3.828825,2.77521 -4.03614,2.85547 -0.207316,0.0803 -0.727402,0.11792 -1.155748,0.0837 -0.997708,-0.0798 -1.738781,-0.62048 -2.060308,-1.50325 -0.181509,-0.49834 -1.44761,-8.49636 -1.44761,-9.14462 0,-0.13997 -1.97152,-1.19876 -2.232142,-1.19876 -0.07364,0 -1.951739,0.85453 -4.173553,1.89895 -2.221815,1.04442 -4.287445,1.93218 -4.59029,1.9728 -1.150138,0.15427 -2.347439,-0.66476 -2.667776,-1.82493 -0.09398,-0.34038 -0.0727,-1.90423 0.06197,-4.55405 0.112811,-2.21962 0.206818,-4.27256 0.208906,-4.56211 0.0034,-0.46671 -0.101784,-0.61063 -0.926828,-1.26859 l -0.930622,-0.74216 -4.414147,1.09942 c -4.859745,1.21041 -5.351805,1.25462 -6.25938,0.56238 -0.597028,-0.45538 -0.99829,-1.22699 -1.003625,-1.92995 -0.0021,-0.27704 0.48416,-2.47028 1.080583,-4.87386 l 1.084405,-4.37015 -0.742156,-0.93063 c -0.872107,-1.09357 -0.212552,-1.01346 -5.901722,-0.7168 -2.620675,0.13666 -4.132692,0.15759 -4.478854,0.062 -1.163231,-0.32118 -1.983616,-1.51701 -1.829418,-2.66664 0.04045,-0.30159 0.928213,-2.36263 1.972802,-4.58008 1.04459,-2.21746 1.899254,-4.09658 1.899254,-4.17584 0,-0.31362 -1.068207,-2.24246 -1.242786,-2.24407 -0.809497,-0.007 -9.042005,-1.37364 -9.403275,-1.56046 -0.69043,-0.35704 -1.131043,-1.07525 -1.201644,-1.95871 -0.03366,-0.42121 0.0044,-0.93506 0.08463,-1.14187 0.0802,-0.20682 1.363969,-2.02013 2.852809,-4.02959 l 2.706982,-3.65357 -0.352166,-1.14141 c -0.193691,-0.62778 -0.376814,-1.16607 -0.40694,-1.19619 -0.03013,-0.0301 -1.944777,-0.73178 -4.25478,-1.55923 -2.310003,-0.82745 -4.365036,-1.62739 -4.56674,-1.77765 -0.610794,-0.455 -0.940863,-1.0122 -1.021059,-1.7237 -0.147926,-1.31239 -0.0014,-1.50356 3.788085,-4.94318 l 3.506456,-3.18271 -0.0647,-0.61732 c -0.03558,-0.33953 -0.09739,-0.88993 -0.137358,-1.22312 l -0.07266,-0.60579 -3.989183,-2.38972 c -2.611517,-1.56443 -4.103477,-2.54994 -4.320131,-2.85367 -0.471251,-0.66064 -0.471251,-2.22261 0,-2.88325 0.216654,-0.30373 1.708614,-1.28924 4.320131,-2.85367 l 3.989183,-2.38972 0.07266,-0.60579 c 0.03996,-0.33319 0.101774,-0.88359 0.137358,-1.22312 l 0.0647,-0.61732 -3.506456,-3.1827 c -3.789511,-3.43963 -3.936011,-3.6308 -3.788085,-4.94319 0.0802,-0.7115 0.410265,-1.2687 1.021059,-1.7237 0.201704,-0.15026 2.256737,-0.9502 4.56674,-1.77765 2.310003,-0.82745 4.224654,-1.5291 4.25478,-1.55923 0.03013,-0.0301 0.213249,-0.56841 0.40694,-1.19619 l 0.352166,-1.14141 -2.706982,-3.65357 c -1.48884,-2.00946 -2.772604,-3.82277 -2.852809,-4.02959 -0.0802,-0.20681 -0.118286,-0.72065 -0.08463,-1.14187 0.0706,-0.88346 0.511214,-1.60167 1.201644,-1.95871 0.36127,-0.18682 8.593778,-1.55299 9.403275,-1.56046 0.174579,-0.002 1.242786,-1.93045 1.242786,-2.24407 0,-0.0793 -0.854664,-1.95838 -1.899254,-4.17584 -1.044589,-2.21745 -1.93235,-4.27849 -1.972802,-4.58007 -0.154198,-1.14964 0.666187,-2.34547 1.829418,-2.66665 0.346162,-0.0956 1.858179,-0.0747 4.478854,0.062 5.68917,0.29666 5.029615,0.37677 5.901722,-0.7168 l 0.742156,-0.93063 -1.084405,-4.370147 c -0.596423,-2.403584 -1.082685,-4.596821 -1.080583,-4.873861 0.0053,-0.702957 0.406597,-1.474574 1.003625,-1.92995 0.907575,-0.692241 1.399635,-0.648032 6.25938,0.562376 l 4.414147,1.099423 0.930622,-0.742156 c 0.825044,-0.65796 0.930192,-0.801881 0.926828,-1.268597 -0.0021,-0.289542 -0.0961,-2.342488 -0.208906,-4.562102 -0.134677,-2.649827 -0.155959,-4.213679 -0.06197,-4.55406 0.320337,-1.160164 1.517638,-1.979194 2.667776,-1.824928 0.302845,0.04062 2.368475,0.928381 4.59029,1.972802 2.221814,1.044421 4.099913,1.898947 4.173553,1.898947 0.260622,0 2.232142,-1.058789 2.232142,-1.198753 0,-0.648261 1.266101,-8.646284 1.44761,-9.144626 0.321527,-0.882765 1.0626,-1.42347 2.060308,-1.50325 0.428346,-0.03425 0.948432,0.0034 1.155748,0.08366 0.207315,0.08026 2.023579,1.365228 4.03614,2.855474 l 3.659203,2.709539 1.12809,-0.348055 c 0.62045,-0.19143 1.15302,-0.372984 1.18349,-0.403453 0.03047,-0.03047 0.735501,-1.948171 1.566736,-4.261557 0.831235,-2.313387 1.633944,-4.371189 1.783798,-4.572893 0.453407,-0.610286 1.011177,-0.940829 1.722972,-1.021059 1.312391,-0.147926 1.503564,-0.0014 4.943185,3.788085 l 3.182703,3.506456 0.617322,-0.0647 c 0.339527,-0.03558 0.889926,-0.09739 1.223116,-0.137358 l 0.6058,-0.07266 2.38971,-3.989183 c 1.56443,-2.611517 2.54995,-4.103477 2.85367,-4.320131 0.66064,-0.471251 2.22262,-0.471251 2.88326,0 0.3037,0.216638 1.28881,1.7079 2.85208,4.317489 l 2.38814,3.986542 0.83299,0.08762 c 0.45815,0.04819 1.00612,0.114658 1.21771,0.147707 0.33729,0.05268 0.77783,-0.373027 3.5744,-3.454076 3.44714,-3.797794 3.63749,-3.943753 4.95018,-3.795793 0.7118,0.08023 1.26957,0.410773 1.72298,1.021059 0.14985,0.201704 0.95256,2.259506 1.7838,4.572893 0.83123,2.313386 1.53321,4.228037 1.55995,4.254779 0.0267,0.02674 0.56226,0.207097 1.19004,0.400788 l 1.14142,0.352166 3.65356,-2.706982 c 2.00946,-1.48884 3.82278,-2.772604 4.02959,-2.852809 0.20682,-0.0802 0.7265,-0.117802 1.15484,-0.08355 0.99771,0.07978 1.73878,0.620485 2.06031,1.50325 0.18151,0.498342 1.44761,8.496365 1.44761,9.144626 0,0.145933 1.97688,1.198753 2.2509,1.198753 0.084,0 1.96139,-0.854437 4.17207,-1.898748 2.21068,-1.044311 4.26787,-1.932072 4.57153,-1.972802 1.15336,-0.154698 2.34877,0.664014 2.67042,1.828912 0.0956,0.346162 0.0746,1.858179 -0.062,4.478854 -0.29615,5.679352 -0.37108,5.03417 0.68218,5.87402 0.4928,0.39295 0.98885,0.714454 1.10234,0.714454 0.11348,0 2.07539,-0.473796 4.35981,-1.05288 2.28441,-0.579084 4.40038,-1.052881 4.70214,-1.052881 1.2228,0 2.29966,0.961529 2.4365,2.175535 0.0574,0.509165 -0.18783,1.726616 -1.02396,5.083647 l -1.09943,4.414144 0.74216,0.93063 c 0.87211,1.09357 0.21255,1.01346 5.90172,0.7168 2.62068,-0.13666 4.13269,-0.15759 4.47886,-0.062 1.16323,0.32118 1.98361,1.51701 1.82941,2.66665 -0.0404,0.30158 -0.92821,2.36262 -1.9728,4.58007 -1.04459,2.21746 -1.89925,4.09659 -1.89925,4.17584 0,0.31349 1.06818,2.24248 1.24278,2.2443 0.83514,0.009 9.02658,1.36543 9.39522,1.55606 0.69812,0.36102 1.13884,1.07613 1.2097,1.96288 0.0337,0.42122 -0.004,0.93506 -0.0846,1.14187 -0.0802,0.20682 -1.36397,2.02013 -2.85281,4.02959 l -2.70698,3.65357 0.35216,1.14141 c 0.19369,0.62778 0.37418,1.16343 0.40108,1.19033 0.0269,0.0269 1.9378,0.72547 4.24644,1.55238 2.30864,0.82692 4.36631,1.6295 4.5726,1.78352 0.63745,0.47592 0.95918,1.03577 1.03225,1.79625 0.12181,1.26773 -0.0835,1.53137 -3.83629,4.92623 l -3.46145,3.13132 0.0649,0.61863 c 0.0357,0.34025 0.0974,0.89021 0.13719,1.22212 l 0.0723,0.60349 3.92434,2.32954 c 4.56883,2.71212 4.71662,2.84873 4.71662,4.3601 0,1.51136 -0.14779,1.64797 -4.71662,4.36009 l -3.92434,2.32954 -0.0838,0.67869 c -0.0461,0.37328 -0.11396,0.9177 -0.15078,1.20983 -0.0661,0.52472 -0.025,0.56911 3.40811,3.67474 3.76724,3.40793 3.97174,3.67027 3.84988,4.93853 -0.0731,0.76048 -0.3948,1.32033 -1.03225,1.79626 -0.20629,0.15401 -2.26396,0.95659 -4.5726,1.78351 -2.30864,0.82691 -4.22259,1.52853 -4.25322,1.55916 -0.0306,0.0306 -0.2126,0.56426 -0.40438,1.18586 l -0.3487,1.13017 2.71029,3.65803 c 1.49066,2.01192 2.77591,3.82724 2.85612,4.03406 0.0802,0.20681 0.11828,0.72066 0.0846,1.14187 -0.0709,0.88675 -0.51158,1.60186 -1.2097,1.96288 -0.36864,0.19063 -8.56008,1.54732 -9.39522,1.55606 -0.1746,0.002 -1.24278,1.93081 -1.24278,2.2443 0,0.0793 0.85466,1.95838 1.89925,4.17584 1.04459,2.21745 1.93235,4.27849 1.9728,4.58008 0.1542,1.14963 -0.66618,2.34546 -1.82941,2.66664 -0.34617,0.0956 -1.85818,0.0747 -4.47886,-0.062 -5.69084,-0.29675 -5.02971,-0.37582 -5.9042,0.70617 l -0.74464,0.92133 1.10191,4.42411 c 0.83815,3.36516 1.08384,4.58436 1.02644,5.09361 -0.13684,1.21401 -1.2137,2.17553 -2.4365,2.17553 -0.30176,0 -2.41773,-0.47379 -4.70214,-1.05288 -2.28442,-0.57908 -4.25202,-1.05288 -4.37245,-1.05288 -0.12043,0 -0.61678,0.32151 -1.103,0.71446 -1.03858,0.83935 -0.96508,0.19383 -0.66888,5.87402 0.13665,2.62067 0.15759,4.13269 0.062,4.47885 -0.32165,1.1649 -1.51706,1.98361 -2.67042,1.82891 -0.30366,-0.0407 -2.36085,-0.92849 -4.57153,-1.9728 -2.21068,-1.04431 -4.08811,-1.89875 -4.17207,-1.89875 -0.27402,0 -2.2509,1.05282 -2.2509,1.19876 0,0.64826 -1.2661,8.64628 -1.44761,9.14462 -0.32153,0.88277 -1.0626,1.42347 -2.06031,1.50325 -0.42834,0.0343 -0.94802,-0.003 -1.15484,-0.0836 -0.20681,-0.0802 -2.02013,-1.36397 -4.02959,-2.85281 l -3.65356,-2.70698 -1.14142,0.35217 c -0.62778,0.19369 -1.16329,0.37404 -1.19004,0.40079 -0.0267,0.0267 -0.72872,1.94139 -1.55995,4.25478 -0.83124,2.31338 -1.63395,4.37118 -1.7838,4.57289 -0.45341,0.61028 -1.01118,0.94083 -1.72298,1.02106 -1.31269,0.14796 -1.50304,0.002 -4.95018,-3.7958 -2.79657,-3.08105 -3.23711,-3.50676 -3.5744,-3.45407 -0.21159,0.033 -0.75956,0.0995 -1.21771,0.14771 l -0.83299,0.0876 -2.38814,3.98655 c -1.53436,2.56133 -2.55048,4.10214 -2.84225,4.3099 -0.45734,0.32565 -1.86755,0.51332 -2.35393,0.31324 z m 8.12222,-24.02985 c 5.82562,-0.686 11.40356,-2.05684 16.51856,-4.05963 2.20926,-0.86503 4.38864,-1.83117 4.38864,-1.9455 0,-0.0387 0.44024,-2.83453 0.97832,-6.21304 0.86272,-5.41691 1.03221,-6.25287 1.43443,-7.07489 0.83169,-1.69967 2.4975,-2.75292 4.35401,-2.75292 0.75153,0 12.03833,1.68458 12.59926,1.88047 0.23111,0.0807 3.08497,-3.15913 4.77975,-5.42621 7.24747,-9.6948 11.50635,-20.43344 12.9581,-32.67345 0.33491,-2.82376 0.37293,-10.42679 0.0669,-13.37632 l -0.20652,-1.99026 -5.56497,-2.82291 c -6.11044,-3.0996 -6.73434,-3.51758 -7.4236,-4.97343 -0.52056,-1.0995 -0.64912,-2.57519 -0.31325,-3.59544 0.13068,-0.39695 1.49042,-3.17779 3.02166,-6.17966 l 2.78407,-5.45793 -0.84044,-1.461 c -4.69028,-8.15344 -11.62979,-15.65256 -19.54533,-21.121512 -5.17867,-3.578008 -11.6724,-6.736568 -17.66319,-8.591402 -2.46542,-0.763331 -5.73086,-1.584836 -6.81076,-1.71342 l -0.72646,-0.0865 -4.61315,4.586066 c -5.23923,5.208474 -5.34119,5.281355 -7.39693,5.287479 -2.04225,0.0061 -2.26119,-0.150435 -7.44743,-5.324138 -3.651112,-3.642288 -4.592069,-4.504661 -4.915149,-4.504661 -0.219766,0 -1.277694,0.202915 -2.35095,0.450923 -15.087617,3.486443 -28.296486,12.067045 -37.661119,24.465005 -2.084132,2.75921 -4.930966,7.24456 -4.930966,7.76902 0,0.142 0.633217,1.5266 1.407148,3.07689 0.773931,1.55029 1.591094,3.25867 1.815917,3.79639 0.224823,0.53772 0.860704,1.8882 1.413068,3.00106 l 1.004299,2.02338 -0.0013,1.36088 c -0.0011,1.18383 -0.05607,1.4728 -0.422439,2.22126 -0.771333,1.57579 -1.132808,1.80509 -9.446768,5.99236 l -3.553209,1.78955 -0.207079,1.99613 c -0.269078,2.59378 -0.275736,10.38897 -0.01095,12.82576 1.186784,10.92203 4.654132,20.68992 10.514332,29.62001 2.684665,4.09104 6.665844,8.96055 7.325898,8.96055 0.191147,0 2.893234,-0.40612 6.004639,-0.90247 3.111405,-0.49636 6.062513,-0.90247 6.558016,-0.90247 1.868708,0 3.531536,1.04859 4.365496,2.75292 0.402332,0.82223 0.57186,1.65887 1.437593,7.09467 0.53981,3.38938 1.035099,6.21613 1.100643,6.28167 0.202075,0.20208 3.758576,1.69951 5.740566,2.41701 4.851171,1.75618 10.861226,3.11061 15.793204,3.55918 0.95136,0.0865 2.00048,0.18373 2.33138,0.21602 1.46796,0.14322 9.44334,-0.0503 11.35607,-0.27549 z M 65.608505,179.47065 v -7.89661 h 43.920155 43.92016 v 7.89661 7.8966 H 109.52866 65.608505 Z m 0,-29.25504 v -7.8214 h 35.873145 35.87314 v 7.8214 7.8214 H 101.48165 65.608505 Z m 0,-29.25504 v -7.8966 h 43.920155 43.92016 v 7.8966 7.89661 H 109.52866 65.608505 Z m 4.587551,92.41902 c 1.001746,-0.47952 1.965267,-1.46923 2.451956,-2.51859 0.32342,-0.69733 0.398178,-1.08138 0.401626,-2.06327 0.0037,-1.06267 -0.0542,-1.32515 -0.486057,-2.20238 -1.60207,-3.25427 -5.797098,-3.91836 -8.241852,-1.30472 -1.051195,1.12382 -1.344009,1.88894 -1.34338,3.51026 4.56e-4,1.17592 0.05567,1.46635 0.420405,2.21141 0.513065,1.04805 1.641096,2.09836 2.70641,2.51994 1.092429,0.43232 3.019068,0.36042 4.090892,-0.15265 z m 79.705184,0.15118 c 1.09275,-0.40885 2.22344,-1.44468 2.74911,-2.51847 0.36473,-0.74506 0.41994,-1.03549 0.4204,-2.21141 6.3e-4,-1.62132 -0.29218,-2.38644 -1.34338,-3.51026 -2.44475,-2.61364 -6.63978,-1.94955 -8.24185,1.30472 -0.43186,0.87723 -0.48979,1.13971 -0.48606,2.20238 0.003,0.9793 0.0784,1.3664 0.39828,2.05597 0.61287,1.32126 1.8756,2.41579 3.28257,2.84532 0.76422,0.23331 2.37215,0.14932 3.22093,-0.16825 z M 45.517721,137.14637 c 1.062683,-0.52315 1.833483,-1.30454 2.379113,-2.41178 0.280553,-0.56932 0.338739,-0.93507 0.336809,-2.11713 -0.0028,-1.7026 -0.330859,-2.53204 -1.42272,-3.59688 -2.111228,-2.05898 -5.449084,-1.95677 -7.365174,0.22553 -1.744065,1.98638 -1.694825,5.01494 0.111824,6.87789 1.146379,1.18211 2.272036,1.63086 3.898303,1.55408 0.849194,-0.0401 1.298709,-0.15602 2.061845,-0.53171 z m 129.322209,0.16889 c 2.50165,-1.10915 3.75216,-4.25293 2.64963,-6.66117 -1.27865,-2.79295 -4.27067,-3.88859 -6.97861,-2.55547 -1.68005,0.82708 -2.61933,2.27997 -2.73925,4.23707 -0.15037,2.4542 1.20609,4.39814 3.61912,5.18656 0.87921,0.28727 2.56211,0.18627 3.44911,-0.20699 z M 110.15257,90.175248 c 1.07951,-0.501137 2.00416,-1.424338 2.51248,-2.508568 0.33323,-0.710769 0.39815,-1.05833 0.39748,-2.128016 -6.9e-4,-1.093201 -0.0616,-1.402539 -0.42029,-2.134352 -0.60539,-1.235182 -1.81174,-2.289012 -3.06253,-2.675342 -1.2391,-0.38272 -1.87122,-0.38272 -3.11032,0 -1.25002,0.386093 -2.45664,1.439884 -3.06334,2.675342 -0.36002,0.733125 -0.42029,1.03919 -0.42029,2.134352 0,1.068627 0.0654,1.41795 0.39829,2.128016 0.61965,1.321682 1.84351,2.383888 3.2868,2.852655 0.77511,0.25175 2.5831,0.07307 3.48172,-0.344087 z"
       id="path1"
       inkscape:export-filename="RustAssemblyExplorer.svg"
       inkscape:export-xdpi="96"
       inkscape:export-ydpi="96" /></g></svg>
